<svg width="134" height="28" viewBox="0 0 134 28" fill="none" xmlns="http://www.w3.org/2000/svg">
<path d="M3.32245 25.7944C2.07439 25.1159 0.951051 24.2328 0 23.1826L3.50518 20.4307C3.96828 21.2684 4.63674 21.9768 5.44881 22.4905C6.2204 22.9687 7.11398 23.2174 8.02371 23.2073C8.44786 23.2385 8.8739 23.1813 9.27444 23.0394C9.67498 22.8975 10.0412 22.6741 10.3494 22.3834C10.6085 22.1369 10.8154 21.8415 10.958 21.5147C11.1006 21.1879 11.1761 20.8362 11.18 20.4801C11.1903 20.0838 11.0611 19.6963 10.8146 19.3843C10.5459 19.0699 10.2188 18.8097 9.85105 18.618C9.41448 18.3814 8.95542 18.1883 8.48054 18.0413L6.88577 17.5387C6.18805 17.3162 5.49865 17.069 4.80093 16.8054C4.12317 16.5576 3.48951 16.2044 2.92375 15.759C2.35951 15.3092 1.89564 14.7481 1.56155 14.1111C1.19482 13.3569 1.0181 12.5256 1.04657 11.6887C1.03875 10.8944 1.21196 10.1086 1.55324 9.39001C1.89375 8.67974 2.3771 8.04606 2.97359 7.52792C3.61266 6.97975 4.35125 6.55749 5.14979 6.28378C6.02378 5.97415 6.94619 5.82068 7.8742 5.83058C8.63044 5.82319 9.38524 5.8978 10.1252 6.05305C10.7574 6.19388 11.3727 6.40103 11.9608 6.671C12.5011 6.92715 13.0109 7.2422 13.4808 7.61029C13.9477 7.97552 14.3864 8.37483 14.7932 8.80495L11.6286 11.1861C11.2359 10.5645 10.6855 10.0561 10.0324 9.71196C9.37932 9.36779 8.64651 9.19989 7.90742 9.22516C7.13109 9.17015 6.36254 9.40863 5.75614 9.89259C5.52193 10.0989 5.33537 10.3529 5.20922 10.6373C5.08308 10.9217 5.0203 11.2298 5.0252 11.5405C5.01291 11.9128 5.13351 12.2776 5.36575 12.5704C5.61895 12.8762 5.92916 13.1308 6.27942 13.3202C6.70901 13.5511 7.15952 13.7414 7.62501 13.8886L9.2364 14.4242C9.92581 14.6467 10.6318 14.902 11.3378 15.1904C12.0066 15.4849 12.6324 15.8674 13.1984 16.3274C13.7686 16.78 14.2429 17.34 14.5938 17.9753C14.9749 18.743 15.1603 19.5917 15.1337 20.4471C15.1344 21.2567 14.9706 22.0581 14.652 22.8035C14.3366 23.5674 13.8642 24.2578 13.2649 24.8304C12.6229 25.4462 11.8671 25.933 11.0388 26.2641C10.0767 26.6403 9.04941 26.8251 8.0154 26.8079C6.39002 26.8674 4.77581 26.5187 3.32245 25.7944V25.7944Z" fill="#E60075"/>
<path d="M73.3013 18.7244C73.3242 17.4961 73.0847 16.2768 72.5985 15.1464C72.1663 14.1501 71.5429 13.2464 70.7628 12.4854C70.0151 11.7791 69.1362 11.223 68.1747 10.8479C66.2417 10.0727 64.0799 10.0727 62.1469 10.8479C61.2556 11.1885 60.4692 11.7528 59.8648 12.4854V3.07783H56.1025V26.822H59.8648V24.6523C60.4636 25.4277 61.2402 26.0507 62.1304 26.4699C63.0869 26.9354 64.1407 27.171 65.2063 27.1577C66.237 27.1552 67.258 26.9608 68.2161 26.5846C69.1806 26.2154 70.0606 25.6586 70.8042 24.947C71.5737 24.1826 72.1884 23.2793 72.615 22.2861C73.0837 21.1567 73.3171 19.9453 73.3013 18.7244Z" fill="#E60075"/>
<path d="M92.0572 18.7244C92.0801 17.4961 91.8405 16.2768 91.3543 15.1464C90.9222 14.1501 90.2987 13.2464 89.5187 12.4854C88.771 11.7791 87.8921 11.223 86.9306 10.8479C84.9976 10.0727 82.8358 10.0727 80.9028 10.8479C80.0115 11.1885 79.225 11.7528 78.6206 12.4854V3.07783H74.8584V26.822H78.6206V24.6523C79.2194 25.4277 79.996 26.0507 80.8862 26.4699C81.8427 26.9354 82.8965 27.171 83.9622 27.1577C84.9928 27.1552 86.0139 26.9608 86.972 26.5846C87.9365 26.2154 88.8165 25.6586 89.56 24.947C90.3296 24.1826 90.9443 23.2793 91.3709 22.2861C91.8396 21.1567 92.073 19.9453 92.0572 18.7244Z" fill="#E60075"/>
<path d="M22.005 26.1174C20.9668 25.6866 20.023 25.064 19.2253 24.2837C18.0073 23.0614 17.1822 21.5161 16.8523 19.8393C16.5224 18.1625 16.7022 16.4277 17.3693 14.8499C17.802 13.8286 18.4322 12.899 19.2253 12.1119C20.0208 11.329 20.9651 10.706 22.005 10.2782C23.0946 9.8324 24.2649 9.60669 25.4458 9.61445C26.35 9.612 27.2496 9.74058 28.1153 9.99609C28.926 10.2413 29.6965 10.5989 30.4035 11.0581C31.0867 11.4998 31.6981 12.0396 32.2171 12.6594C32.7372 13.2867 33.1651 13.9821 33.4883 14.7254L29.9967 16.1609C29.6366 15.2865 29.0203 14.5359 28.2255 14.0036C27.421 13.4533 26.461 13.1632 25.4797 13.1738C24.8 13.1671 24.1267 13.303 23.5051 13.5722C22.9103 13.824 22.3719 14.1876 21.9203 14.6425C21.4632 15.0981 21.1056 15.6402 20.8694 16.2355C20.6158 16.8582 20.4891 17.5234 20.4965 18.1936C20.4907 18.8557 20.6174 19.5124 20.8694 20.1268C21.2407 21.0326 21.8809 21.8085 22.7073 22.3543C23.5337 22.9 24.5083 23.1907 25.5051 23.1885C26.5107 23.2229 27.4998 22.9312 28.3187 22.3588C29.0918 21.7877 29.6922 21.0221 30.0561 20.1434L33.5477 21.6121C33.2211 22.3614 32.7936 23.0647 32.2764 23.7029C31.7636 24.339 31.1582 24.8981 30.4798 25.3624C29.7728 25.8289 28.9988 26.1897 28.1831 26.4327C27.2948 26.6911 26.3724 26.8197 25.4458 26.8144C24.2617 26.8199 23.0896 26.5825 22.005 26.1174Z" fill="#E60075"/>
<path d="M38.8308 10.3159V12.7993C39.199 12.0008 39.8089 11.3338 40.5772 10.8893C41.3455 10.4447 42.2346 10.2445 43.123 10.3159C43.6907 10.3051 44.2572 10.3721 44.8062 10.5147C45.2598 10.6317 45.6977 10.8012 46.1107 11.0196L44.6547 14.6205C44.3542 14.4301 44.0322 14.2745 43.6953 14.1569C43.2544 14.0217 42.7935 13.9602 42.3319 13.9748C41.8671 13.9475 41.4018 14.0175 40.9665 14.1802C40.5313 14.3428 40.1361 14.5945 39.8071 14.9185C39.1555 15.8103 38.8564 16.905 38.9655 17.9979V26.814H35.1025V10.3491L38.8308 10.3159Z" fill="#E60075"/>
<path d="M97.0543 5.83008V26.8144H93.6143V5.83008H97.0543Z" fill="#E60075"/>
<path d="M52.9989 10.3018V26.814H49.2148V10.3349L52.9989 10.3018Z" fill="#E60075"/>
<circle cx="51.107" cy="4.28185" r="2.94005" stroke="#E60075"/>
<path d="M104.529 12.4492C106.134 11.7944 107.933 11.794 109.538 12.4463C110.304 12.7729 111 13.2393 111.591 13.8213C112.189 14.4213 112.661 15.1329 112.981 15.9141C113.302 16.6975 113.464 17.5365 113.457 18.3818L113.455 18.7158L113.458 18.7256C113.429 19.368 113.304 20.0025 113.084 20.6074L112.968 20.9043L112.967 20.9072C112.323 22.441 111.099 23.666 109.556 24.3184C107.943 24.979 106.134 24.979 104.521 24.3184H104.521C103.856 24.0442 103.247 23.6567 102.72 23.1748L102.498 22.9619L102.497 22.9609L102.276 22.7275C101.204 21.5347 100.609 19.9893 100.609 18.3857C100.609 16.677 101.285 15.035 102.494 13.8145C103.075 13.2311 103.767 12.7673 104.53 12.4502L104.529 12.4492Z" stroke="#E60075" stroke-width="4"/>
<path d="M122.941 12.4492C124.546 11.7944 126.345 11.794 127.95 12.4463C128.716 12.7729 129.412 13.2393 130.003 13.8213C130.601 14.4213 131.073 15.1329 131.394 15.9141C131.715 16.6975 131.876 17.5365 131.869 18.3818L131.867 18.7158L131.87 18.7256C131.841 19.368 131.716 20.0025 131.496 20.6074L131.38 20.9043L131.379 20.9072C130.735 22.441 129.511 23.666 127.968 24.3184C126.356 24.979 124.546 24.979 122.934 24.3184H122.933C122.268 24.0442 121.659 23.6567 121.132 23.1748L120.91 22.9619L120.909 22.9609L120.688 22.7275C119.616 21.5347 119.021 19.9893 119.021 18.3857C119.022 16.677 119.698 15.035 120.906 13.8145C121.487 13.2311 122.179 12.7673 122.942 12.4502L122.941 12.4492Z" stroke="#E60075" stroke-width="4"/>
</svg>
